<svg width="50" height="51" viewBox="0 0 50 51" fill="none" xmlns="http://www.w3.org/2000/svg">
<path d="M47 32C47 40.8366 39.8366 48 31 48C22.1634 48 15 40.8366 15 32C15 23.1634 22.1634 16 31 16C39.8366 16 47 23.1634 47 32Z" fill="#60EAAC"/>
<path fill-rule="evenodd" clip-rule="evenodd" d="M44.6093 21.0867C41.4261 16.9509 36.4261 14.2857 30.8036 14.2857C21.1879 14.2857 13.3929 22.0808 13.3929 31.6964C13.3929 36.6957 15.4999 41.2029 18.8744 44.3783C8.18334 42.7211 0 33.4769 0 22.3214C0 9.99364 9.99364 0 22.3214 0C34.2349 0 43.9685 9.33323 44.6093 21.0867Z" fill="#C450A0"/>
</svg>
